<svg width="143" height="27" fill="none" xmlns="http://www.w3.org/2000/svg"><path d="M4.038 3.266v8.658h10.368v3.114H4.038V26H.186V.152h16.02v3.114H4.038zm23.08 14.616c-1.428.048-2.64.162-3.636.342-.996.168-1.806.396-2.43.684-.624.288-1.074.63-1.35 1.026a2.167 2.167 0 00-.414 1.296c0 .456.072.852.216 1.188.156.324.36.594.612.81.264.204.57.354.918.45.348.096.726.144 1.134.144a6.248 6.248 0 002.754-.612c.396-.204.774-.45 1.134-.738.36-.288.714-.618 1.062-.99v-3.6zm-10.296-7.614c1.02-.972 2.124-1.698 3.312-2.178 1.2-.48 2.514-.72 3.942-.72 1.044 0 1.968.174 2.772.522.804.336 1.482.81 2.034 1.422a5.984 5.984 0 011.242 2.196c.288.852.432 1.794.432 2.826V26H28.99c-.348 0-.612-.054-.792-.162-.18-.12-.324-.336-.432-.648l-.378-1.602c-.468.432-.93.816-1.386 1.152a9.63 9.63 0 01-1.44.846 7.433 7.433 0 01-1.584.522c-.564.12-1.188.18-1.872.18-.72 0-1.398-.096-2.034-.288a4.67 4.67 0 01-1.638-.918 4.392 4.392 0 01-1.116-1.53c-.264-.612-.396-1.326-.396-2.142 0-.72.192-1.41.576-2.07.396-.672 1.032-1.272 1.908-1.8.888-.528 2.04-.96 3.456-1.296 1.428-.336 3.18-.528 5.256-.576v-1.332c0-1.38-.294-2.412-.882-3.096-.588-.684-1.452-1.026-2.592-1.026-.768 0-1.416.096-1.944.288a7.446 7.446 0 00-1.35.648 31.07 31.07 0 00-.99.63 1.491 1.491 0 01-.864.288c-.24 0-.45-.066-.63-.198a1.71 1.71 0 01-.414-.468l-.63-1.134zm21.745.954c.588-1.2 1.296-2.142 2.124-2.826.828-.684 1.824-1.026 2.988-1.026.396 0 .768.048 1.116.144.36.084.672.216.936.396l-.234 2.646c-.084.324-.282.486-.594.486-.168 0-.42-.03-.756-.09a5.149 5.149 0 00-1.08-.108c-.564 0-1.062.084-1.494.252a3.397 3.397 0 00-1.17.72 4.793 4.793 0 00-.9 1.17c-.264.456-.51.978-.738 1.566V26h-3.51V7.712h2.016c.384 0 .642.072.774.216.144.132.246.372.306.72l.216 2.574zM48.44 26V7.712h2.106c.492 0 .798.234.918.702l.252 1.746a9.243 9.243 0 012.232-1.962c.828-.516 1.794-.774 2.898-.774 1.212 0 2.196.336 2.952 1.008.756.66 1.308 1.56 1.656 2.7a5.697 5.697 0 012.43-2.826 6.268 6.268 0 011.638-.666 7.465 7.465 0 011.782-.216c.972 0 1.836.156 2.592.468.768.3 1.416.744 1.944 1.332.528.588.93 1.314 1.206 2.178.276.864.414 1.848.414 2.952V26h-3.53V14.354c0-1.368-.3-2.4-.9-3.096-.588-.696-1.452-1.044-2.592-1.044-.504 0-.984.09-1.44.27a3.302 3.302 0 00-1.206.774c-.336.348-.606.78-.81 1.296-.192.516-.288 1.116-.288 1.8V26h-3.528V14.354c0-1.416-.282-2.46-.846-3.132-.564-.672-1.392-1.008-2.484-1.008-.756 0-1.458.198-2.106.594-.648.396-1.242.936-1.782 1.62V26h-3.51zM97.822.152L87.31 26h-3.438L73.36.152h3.06c.336 0 .606.084.81.252.216.168.378.384.486.648L84.7 18.62c.168.432.33.906.486 1.422.168.516.318 1.056.45 1.62.12-.564.252-1.104.396-1.62.144-.516.3-.99.468-1.422l6.966-17.568c.084-.24.234-.45.45-.63.228-.18.504-.27.828-.27h3.078zm11.879 14.67a5.84 5.84 0 00-.306-1.926 4.264 4.264 0 00-.864-1.53 3.968 3.968 0 00-1.404-1.008c-.552-.24-1.188-.36-1.908-.36-1.476 0-2.64.426-3.492 1.278-.84.852-1.374 2.034-1.602 3.546h9.576zm2.898 8.568c-.432.504-.93.942-1.494 1.314a8.944 8.944 0 01-1.8.882c-.636.228-1.296.396-1.98.504-.672.108-1.338.162-1.998.162-1.26 0-2.43-.21-3.51-.63a8.05 8.05 0 01-2.79-1.872c-.78-.828-1.392-1.848-1.836-3.06-.432-1.224-.648-2.628-.648-4.212 0-1.272.198-2.454.594-3.546a8.617 8.617 0 011.692-2.88 7.935 7.935 0 012.718-1.926c1.068-.468 2.268-.702 3.6-.702 1.116 0 2.142.186 3.078.558a6.74 6.74 0 012.448 1.584c.684.696 1.218 1.554 1.602 2.574.396 1.02.594 2.184.594 3.492 0 .54-.06.906-.18 1.098-.12.18-.342.27-.666.27h-11.988c.036 1.092.192 2.046.468 2.862.276.804.654 1.476 1.134 2.016.492.54 1.074.942 1.746 1.206.672.264 1.422.396 2.25.396.78 0 1.452-.09 2.016-.27a9.996 9.996 0 001.476-.576c.42-.216.768-.414 1.044-.594.288-.18.54-.27.756-.27.288 0 .51.108.666.324l1.008 1.296zm14.825-12.528c-.096.156-.198.27-.306.342a.846.846 0 01-.414.09c-.192 0-.408-.066-.648-.198a10.77 10.77 0 00-.846-.432 7.79 7.79 0 00-1.152-.432c-.444-.132-.972-.198-1.584-.198-.504 0-.966.066-1.386.198-.408.12-.756.294-1.044.522-.288.216-.51.48-.666.792-.156.3-.234.624-.234.972 0 .456.132.834.396 1.134.276.3.63.558 1.062.774.444.216.942.414 1.494.594.564.168 1.134.348 1.71.54.588.192 1.158.414 1.71.666.564.24 1.062.546 1.494.918.444.36.798.798 1.062 1.314.276.516.414 1.146.414 1.89 0 .852-.156 1.644-.468 2.376a5.06 5.06 0 01-1.35 1.872c-.588.528-1.32.942-2.196 1.242-.876.3-1.878.45-3.006.45-1.26 0-2.424-.21-3.492-.63-1.068-.42-1.962-.954-2.682-1.602l.828-1.35a.996.996 0 01.36-.378c.144-.096.336-.144.576-.144.228 0 .462.084.702.252.24.168.528.354.864.558a7.43 7.43 0 001.224.54c.48.156 1.08.234 1.8.234.6 0 1.122-.072 1.566-.216.444-.156.81-.36 1.098-.612.3-.264.522-.564.666-.9.144-.336.216-.69.216-1.062 0-.48-.138-.876-.414-1.188-.264-.324-.618-.6-1.062-.828a8.245 8.245 0 00-1.494-.594 69.364 69.364 0 01-1.728-.54 17.704 17.704 0 01-1.728-.666 6.097 6.097 0 01-1.512-.954 4.617 4.617 0 01-1.062-1.404c-.264-.552-.396-1.224-.396-2.016 0-.708.144-1.386.432-2.034a5.2 5.2 0 011.278-1.71c.564-.492 1.254-.882 2.07-1.17.828-.3 1.77-.45 2.826-.45 1.212 0 2.304.192 3.276.576.984.384 1.824.912 2.52 1.584l-.774 1.278zm10.586 15.426c-1.476 0-2.616-.414-3.42-1.242-.792-.828-1.188-2.01-1.188-3.546V10.556h-2.124a.789.789 0 01-.522-.18c-.132-.132-.198-.324-.198-.576V8.378l2.97-.414.792-5.454a.826.826 0 01.27-.468.815.815 0 01.54-.18h1.782V8h5.184v2.556h-5.184v10.71c0 .72.174 1.26.522 1.62.36.348.816.522 1.368.522.324 0 .6-.042.828-.126.24-.084.444-.174.612-.27.168-.108.312-.204.432-.288a.585.585 0 01.324-.126c.12 0 .21.03.27.09a.78.78 0 01.216.252l1.044 1.692a6.065 6.065 0 01-2.052 1.224 7.16 7.16 0 01-2.466.432z" fill="#fff"/></svg>.649 23.21C108.225 23.03 108.717 22.838 109.125 22.634C109.545 22.418 109.893 22.22 110.169 22.04C110.457 21.86 110.709 21.77 110.925 21.77C111.213 21.77 111.435 21.878 111.591 22.094L112.599 23.39ZM127.424 10.862C127.328 11.018 127.226 11.132 127.118 11.204C127.01 11.264 126.872 11.294 126.704 11.294C126.512 11.294 126.296 11.228 126.056 11.096C125.828 10.964 125.546 10.82 125.21 10.664C124.886 10.508 124.502 10.364 124.058 10.232C123.614 10.1 123.086 10.034 122.474 10.034C121.97 10.034 121.508 10.1 121.088 10.232C120.68 10.352 120.332 10.526 120.044 10.754C119.756 10.97 119.534 11.234 119.378 11.546C119.222 11.846 119.144 12.17 119.144 12.518C119.144 12.974 119.276 13.352 119.54 13.652C119.816 13.952 120.17 14.21 120.602 14.426C121.046 14.642 121.544 14.84 122.096 15.02C122.66 15.188 123.23 15.368 123.806 15.56C124.394 15.752 124.964 15.974 125.516 16.226C126.08 16.466 126.578 16.772 127.01 17.144C127.454 17.504 127.808 17.942 128.072 18.458C128.348 18.974 128.486 19.604 128.486 20.348C128.486 21.2 128.33 21.992 128.018 22.724C127.718 23.444 127.268 24.068 126.668 24.596C126.08 25.124 125.348 25.538 124.472 25.838C123.596 26.138 122.594 26.288 121.466 26.288C120.206 26.288 119.042 26.078 117.974 25.658C116.906 25.238 116.012 24.704 115.292 24.056L116.12 22.706C116.216 22.538 116.336 22.412 116.48 22.328C116.624 22.232 116.816 22.184 117.056 22.184C117.284 22.184 117.518 22.268 117.758 22.436C117.998 22.604 118.286 22.79 118.622 22.994C118.958 23.186 119.366 23.366 119.846 23.534C120.326 23.69 120.926 23.768 121.646 23.768C122.246 23.768 122.768 23.696 123.212 23.552C123.656 23.396 124.022 23.192 124.31 22.94C124.61 22.676 124.832 22.376 124.976 22.04C125.12 21.704 125.192 21.35 125.192 20.978C125.192 20.498 125.054 20.102 124.778 19.79C124.514 19.466 124.16 19.19 123.716 18.962C123.284 18.734 122.786 18.536 122.222 18.368C121.658 18.2 121.082 18.02 120.494 17.828C119.906 17.636 119.33 17.414 118.766 17.162C118.202 16.91 117.698 16.592 117.254 16.208C116.822 15.824 116.468 15.356 116.192 14.804C115.928 14.252 115.796 13.58 115.796 12.788C115.796 12.08 115.94 11.402 116.228 10.754C116.528 10.106 116.954 9.536 117.506 9.044C118.07 8.552 118.76 8.162 119.576 7.874C120.404 7.574 121.346 7.424 122.402 7.424C123.614 7.424 124.706 7.616 125.678 8C126.662 8.384 127.502 8.912 128.198 9.584L127.424 10.862ZM138.01 26.288C136.534 26.288 135.394 25.874 134.59 25.046C133.798 24.218 133.402 23.036 133.402 21.5V10.556H131.278C131.074 10.556 130.9 10.496 130.756 10.376C130.624 10.244 130.558 10.052 130.558 9.8V8.378L133.528 7.964L134.32 2.51C134.368 2.306 134.458 2.15 134.59 2.042C134.734 1.922 134.914 1.862 135.13 1.862H136.912V8H142.096V10.556H136.912V21.266C136.912 21.986 137.086 22.526 137.434 22.886C137.794 23.234 138.25 23.408 138.802 23.408C139.126 23.408 139.402 23.366 139.63 23.282C139.87 23.198 140.074 23.108 140.242 23.012C140.41 22.904 140.554 22.808 140.674 22.724C140.794 22.64 140.902 22.598 140.998 22.598C141.118 22.598 141.208 22.628 141.268 22.688C141.34 22.736 141.412 22.82 141.484 22.94L142.528 24.632C141.952 25.16 141.268 25.568 140.476 25.856C139.684 26.144 138.862 26.288 138.01 26.288Z" fill="white"/>
</svg>
