<svg width="163" height="45" fill="none" xmlns="http://www.w3.org/2000/svg"><path stroke="#fff" stroke-width="4" stroke-linecap="round" d="M12 14.5v16m10-14v12m10-10v8"/><path d="M42.816 29V10.85h9.482v1.969h-7.964l.715-.583v7.678l-.715-.99h7.469v1.958h-7.469l.715-.99V29h-2.233zm17.211.352c-1.049 0-1.998-.257-2.849-.77a5.695 5.695 0 01-2.013-2.134c-.491-.902-.737-1.932-.737-3.091 0-1.144.242-2.163.726-3.058a5.528 5.528 0 011.991-2.134c.843-.52 1.804-.781 2.882-.781.953 0 1.822.213 2.607.638a4.547 4.547 0 011.837 1.771v-2.057h2.134V29h-2.134v-2.112a5.27 5.27 0 01-1.892 1.815 5.12 5.12 0 01-2.552.649zm.572-1.837c.77 0 1.448-.176 2.035-.528.594-.36 1.06-.85 1.397-1.474.337-.623.506-1.338.506-2.145 0-.807-.169-1.522-.506-2.145a3.726 3.726 0 00-1.397-1.463c-.587-.36-1.265-.539-2.035-.539-.763 0-1.441.18-2.035.539a3.806 3.806 0 00-1.408 1.463c-.337.623-.506 1.338-.506 2.145 0 .8.169 1.514.506 2.145a3.887 3.887 0 001.408 1.474c.594.352 1.272.528 2.035.528zM71.109 29V17.736h2.134v1.65c.374-.653.85-1.148 1.43-1.485.579-.345 1.235-.517 1.968-.517.352 0 .708.044 1.067.132.367.08.683.19.947.33l-.88 1.804a3.235 3.235 0 00-.793-.297 3.59 3.59 0 00-.847-.11c-.49 0-.96.128-1.407.385-.44.25-.8.576-1.078.979a2.283 2.283 0 00-.407 1.298V29h-2.134zm10.183 0V17.736h2.134v1.452c.477-.601 1.016-1.052 1.617-1.353a4.413 4.413 0 012.002-.451c.91 0 1.709.209 2.398.627.69.41 1.17.972 1.441 1.683.47-.719 1.034-1.283 1.694-1.694.66-.41 1.434-.616 2.321-.616.807 0 1.522.165 2.145.495a3.64 3.64 0 011.474 1.43c.36.623.54 1.379.54 2.266V29h-2.135v-6.831c0-.939-.246-1.683-.737-2.233s-1.144-.825-1.958-.825a3.13 3.13 0 00-1.529.374 2.933 2.933 0 00-1.067.957c-.257.389-.385.8-.385 1.232V29h-2.134v-6.974c0-.887-.242-1.595-.726-2.123-.484-.528-1.13-.792-1.936-.792-.565 0-1.078.121-1.54.363a2.992 2.992 0 00-1.089.924 2.074 2.074 0 00-.396 1.199V29h-2.134zm28.323 0l-7.612-18.15h2.53l5.962 14.784 5.962-14.784h2.519L111.364 29h-1.749zm16.264.352c-1.181 0-2.241-.26-3.179-.781a5.882 5.882 0 01-2.222-2.123c-.543-.902-.814-1.918-.814-3.047a5.936 5.936 0 011.749-4.257 5.9 5.9 0 014.246-1.76c1.173 0 2.2.242 3.08.726a5.189 5.189 0 012.068 2.024c.498.865.748 1.87.748 3.014 0 .095-.004.172-.011.231a2.63 2.63 0 01-.044.231h-9.68c0 .785.176 1.478.528 2.079.359.601.85 1.074 1.474 1.419.63.337 1.353.506 2.167.506.77 0 1.459-.158 2.068-.473.608-.315 1.136-.785 1.584-1.408l1.562.814a5.524 5.524 0 01-2.211 2.068c-.932.491-1.969.737-3.113.737zm-3.949-7.315h7.48a3.267 3.267 0 00-.682-1.518 3.474 3.474 0 00-1.309-1.023 3.95 3.95 0 00-1.727-.374c-.66 0-1.258.121-1.793.363a3.37 3.37 0 00-1.309 1.012 3.387 3.387 0 00-.66 1.54zm16.098 7.315c-.939 0-1.771-.202-2.497-.605a4.52 4.52 0 01-1.716-1.749l1.023-1.32c.388.653.858 1.159 1.408 1.518.55.36 1.14.539 1.771.539.41 0 .781-.08 1.111-.242.337-.161.605-.392.803-.693.198-.308.297-.671.297-1.089 0-.403-.103-.719-.308-.946-.198-.235-.495-.44-.891-.616a29.702 29.702 0 00-1.463-.605 12.72 12.72 0 01-1.364-.649 3.496 3.496 0 01-1.089-.913c-.279-.374-.418-.847-.418-1.419 0-.616.165-1.162.495-1.639.337-.477.799-.85 1.386-1.122.586-.271 1.254-.407 2.002-.407.608 0 1.199.121 1.771.363a5.96 5.96 0 011.628 1.045l-.858 1.298c-.763-.807-1.606-1.21-2.53-1.21-.558 0-1.009.143-1.353.429a1.334 1.334 0 00-.517 1.089c0 .345.124.634.374.869.249.227.568.425.957.594.388.169.792.334 1.21.495.63.235 1.18.477 1.65.726.476.25.847.572 1.111.968.264.389.396.913.396 1.573 0 .77-.184 1.434-.55 1.991-.36.557-.869.986-1.529 1.287-.66.293-1.43.44-2.31.44zm10.949 0c-.924 0-1.643-.304-2.156-.913-.514-.616-.77-1.478-.77-2.585v-6.501h-1.254v-1.617h1.254v-4.213h2.134v4.213h2.706v1.617h-2.706v6.369c0 .557.11.986.33 1.287.22.3.535.451.946.451.41 0 .777-.121 1.1-.363l.539 1.705c-.286.169-.62.3-1.001.396a4.22 4.22 0 01-1.122.154z" fill="#fff"/></svg>25.989 27.614C126.759 27.614 127.448 27.4563 128.057 27.141C128.665 26.8257 129.193 26.3563 129.641 25.733L131.203 26.547C130.667 27.4343 129.93 28.1237 128.992 28.615C128.06 29.1063 127.023 29.352 125.879 29.352ZM121.93 22.037H129.41C129.307 21.4577 129.08 20.9517 128.728 20.519C128.383 20.079 127.947 19.738 127.419 19.496C126.898 19.2467 126.322 19.122 125.692 19.122C125.032 19.122 124.434 19.243 123.899 19.485C123.371 19.7197 122.934 20.057 122.59 20.497C122.252 20.9297 122.032 21.443 121.93 22.037ZM138.028 29.352C137.089 29.352 136.257 29.1503 135.531 28.747C134.812 28.3363 134.24 27.7533 133.815 26.998L134.838 25.678C135.226 26.3307 135.696 26.8367 136.246 27.196C136.796 27.5553 137.386 27.735 138.017 27.735C138.427 27.735 138.798 27.6543 139.128 27.493C139.465 27.3317 139.733 27.1007 139.931 26.8C140.129 26.492 140.228 26.129 140.228 25.711C140.228 25.3077 140.125 24.9923 139.92 24.765C139.722 24.5303 139.425 24.325 139.029 24.149C138.64 23.973 138.152 23.7713 137.566 23.544C137.096 23.3533 136.642 23.137 136.202 22.895C135.762 22.653 135.399 22.3487 135.113 21.982C134.834 21.608 134.695 21.135 134.695 20.563C134.695 19.947 134.86 19.4007 135.19 18.924C135.527 18.4473 135.989 18.0733 136.576 17.802C137.162 17.5307 137.83 17.395 138.578 17.395C139.186 17.395 139.777 17.516 140.349 17.758C140.921 18 141.463 18.3483 141.977 18.803L141.119 20.101C140.356 19.2943 139.513 18.891 138.589 18.891C138.031 18.891 137.58 19.034 137.236 19.32C136.891 19.5987 136.719 19.9617 136.719 20.409C136.719 20.7537 136.843 21.0433 137.093 21.278C137.342 21.5053 137.661 21.7033 138.05 21.872C138.438 22.0407 138.842 22.2057 139.26 22.367C139.89 22.6017 140.44 22.8437 140.91 23.093C141.386 23.3423 141.757 23.665 142.021 24.061C142.285 24.4497 142.417 24.974 142.417 25.634C142.417 26.404 142.233 27.0677 141.867 27.625C141.507 28.1823 140.998 28.6113 140.338 28.912C139.678 29.2053 138.908 29.352 138.028 29.352ZM148.977 29.352C148.053 29.352 147.334 29.0477 146.821 28.439C146.307 27.823 146.051 26.9613 146.051 25.854V19.353H144.797V17.736H146.051V13.523H148.185V17.736H150.891V19.353H148.185V25.722C148.185 26.2793 148.295 26.7083 148.515 27.009C148.735 27.3097 149.05 27.46 149.461 27.46C149.871 27.46 150.238 27.339 150.561 27.097L151.1 28.802C150.814 28.9707 150.48 29.1027 150.099 29.198C149.725 29.3007 149.351 29.352 148.977 29.352Z" fill="white"/>
</svg>
