<svg width="15" height="26" fill="none" xmlns="http://www.w3.org/2000/svg"><path d="M15 17.515c0-4.615-3.78-5.141-6.817-5.563-3.31-.46-5.183-.86-5.183-3.71C3 5.85 5.507 5 7.654 5a6.754 6.754 0 015.568 2.628l1.556-1.256A8.652 8.652 0 009 3.096V0H7v3.022c-3.615.22-6 2.26-6 5.22 0 4.73 3.83 5.263 6.907 5.69 3.253.453 5.093.842 5.093 3.583C13 20.547 9.867 21 8 21c-3.43 0-4.878-.964-6.222-2.628L.222 19.628A8.438 8.438 0 007 22.965V26h2v-3.045c3.726-.304 6-2.327 6-5.44z" fill="#fff"/></svg>9968 8.242C0.99968 12.972 4.82968 13.505 7.90668 13.932C11.1597 14.385 12.9997 14.774 12.9997 17.515C12.9997 20.547 9.86668 21 7.99968 21C4.56968 21 3.12168 20.036 1.77768 18.372L0.22168 19.628C1.01444 20.6727 2.03979 21.5182 3.21635 22.0975C4.39291 22.6767 5.68829 22.9737 6.99968 22.965V26H8.99968V22.955C12.7257 22.651 14.9997 20.628 14.9997 17.515Z" fill="white"/>
</svg>
