<svg width="202" height="29" viewBox="0 0 202 29" fill="none" xmlns="http://www.w3.org/2000/svg">
<g clip-path="url(#clip0_1204_371)">
<path d="M48.9131 12.1266L48.5655 13.8383H48.4786C48.0442 12.8809 46.8279 11.5464 44.1346 11.5464C39.7905 11.5464 35.3595 14.9117 34.3748 20.2208C33.535 24.8626 35.765 28.9532 40.9199 28.9532C42.8024 28.9532 44.9744 28.2279 46.1039 26.6323H46.1908L45.8722 28.373H50.6796L53.6915 12.1266H48.9131ZM47.3492 20.2208C47.0306 21.8164 45.5247 24.3984 42.5128 24.3984C39.5588 24.3984 38.9506 21.7874 39.2113 20.2788C39.5588 18.4221 41.2095 16.1012 44.0187 16.1012C46.77 16.1302 47.6967 18.306 47.3492 20.2208Z" fill="white" fill-opacity="0.5"/>
<path d="M56.4152 12.1266H60.9331L60.6145 13.8383H60.7014C61.2806 13.055 62.41 11.5464 65.1903 11.5464L64.2925 16.4783C62.0046 16.5073 60.3538 16.9715 59.9194 19.4665L58.2687 28.373H53.4033L56.4152 12.1266Z" fill="white" fill-opacity="0.5"/>
<path d="M68.463 5.77319H73.3283L71.0405 18.016H71.1273L76.7457 12.1267H82.4509L75.037 19.2635L79.2942 28.373H73.7917L70.664 20.54H70.5771L69.158 28.373H64.2637L68.463 5.77319Z" fill="white" fill-opacity="0.5"/>
<path d="M90.2403 11.5464C85.317 11.5464 80.9439 15.782 80.133 20.3078C79.2353 25.1237 82.4788 28.9242 87.1415 28.9242C88.7922 28.9242 90.5009 28.431 92.0069 27.4446C93.5418 26.5162 94.9608 25.1237 96.0614 23.296H91.1091C90.2982 24.1373 89.3715 24.8046 87.8655 24.8046C85.9831 24.8046 84.564 23.6731 84.6509 21.7294H96.8143C96.9591 21.3522 97.046 21.0621 97.1618 20.4529C98.0886 15.4919 95.1925 11.5464 90.2403 11.5464ZM85.317 18.4511C85.6935 17.4937 87.0257 15.666 89.5452 15.666C92.0648 15.666 92.673 17.4937 92.673 18.4511H85.317Z" fill="white" fill-opacity="0.5"/>
<path d="M27.947 5.77319L19.3746 18.6542H19.3167V5.77319H15.1753L0 28.373H5.879L14.3934 15.492H14.4803V28.373H18.6506L27.165 15.492H27.2519V28.373H32.1173V5.77319H27.947Z" fill="white" fill-opacity="0.5"/>
<path d="M109.471 12.1267H106.401L107.299 7.31079H103.042L102.694 9.16752C102.318 11.2853 100.985 11.9236 99.2188 12.1267H99.1898L98.4658 15.8111H100.87L98.5527 28.373H103.389L105.706 15.8111H108.805L109.471 12.1267Z" fill="white" fill-opacity="0.5"/>
<path d="M184.537 22.2227C182.944 25.9071 179.15 28.9243 174.777 28.9243C169.854 28.9243 166.813 25.0368 167.682 20.1919C168.58 15.434 172.982 11.5465 177.847 11.5465C182.133 11.5465 185.087 14.4186 185.174 18.3932H180.251C179.932 17.2618 179.208 16.1013 177.152 16.1013C174.864 15.9853 172.982 17.871 172.547 20.2209C172.113 22.5998 173.329 24.3695 175.646 24.3695C177.644 24.3695 178.861 23.2091 179.556 22.1937H184.537V22.2227ZM144.34 0L134.898 5.77326H137.563L129.019 18.6543H128.933V5.77326H124.762L116.219 18.6543H116.132V5.77326H111.267V28.3731H115.495L124.038 15.4921H124.125V28.3731H128.295L143.413 5.77326H145.817L144.34 0ZM153.549 28.3731H148.742L149.06 26.6324H148.973C147.844 28.2281 145.672 28.9533 143.789 28.9533C138.634 28.9533 136.404 24.8917 137.244 20.2209C138.2 14.9118 142.66 11.5465 147.004 11.5465C149.668 11.5465 150.914 12.852 151.348 13.8384H151.435L151.782 12.1267H156.59L153.549 28.3731ZM145.382 24.4276C148.394 24.4276 149.9 21.8165 150.219 20.2499C150.566 18.3062 149.639 16.1303 146.888 16.1303C144.108 16.1303 142.428 18.4512 142.081 20.3079C141.82 21.8165 142.428 24.4276 145.382 24.4276ZM168.695 12.1267H165.655L166.552 7.31086H162.295L161.948 9.16759C161.571 11.2854 160.239 11.9237 158.472 12.1267H158.414L157.719 15.8112H160.123L157.806 28.3731H162.643L164.959 15.8112H168.058L168.695 12.1267ZM189.113 5.77326H193.949L192.472 13.8384H192.559C193.602 12.3298 194.992 11.5465 197.135 11.5465C198.67 11.5465 200.436 12.1267 201.247 13.3742C202.29 14.9699 202.174 16.3914 201.624 19.2926L199.973 28.3731H195.136L196.758 19.5246C196.903 18.7413 197.366 16.1013 194.789 16.1013C192.067 16.1013 191.603 18.5383 191.458 19.3506L189.808 28.3441H184.971L189.113 5.77326Z" fill="white" fill-opacity="0.5"/>
</g>
<defs>
<clipPath id="clip0_1204_371">
<rect width="202" height="28.9533" fill="white"/>
</clipPath>
</defs>
</svg>
